<?xml version="1.0" encoding="UTF-8" standalone="no"?>
<svg
   xmlns:dc="http://purl.org/dc/elements/1.1/"
   xmlns:cc="http://creativecommons.org/ns#"
   xmlns:rdf="http://www.w3.org/1999/02/22-rdf-syntax-ns#"
   xmlns:svg="http://www.w3.org/2000/svg"
   xmlns="http://www.w3.org/2000/svg"
   version="1.1"
   id="svg2"
   viewBox="0 0 343.45776 111.91625"
   height="31.585253mm"
   width="96.931412mm">
  <defs
     id="defs4">
    <clipPath
       clipPathUnits="userSpaceOnUse"
       id="clipPath4177">
      <path
         d="m 0,134 322.153,0 0,-134 L 0,0 0,134 Z"
         id="path4179" />
    </clipPath>
  </defs>
  <metadata
     id="metadata7">
    <rdf:RDF>
      <cc:Work
         rdf:about="">
        <dc:format>image/svg+xml</dc:format>
        <dc:type
           rdf:resource="http://purl.org/dc/dcmitype/StillImage" />
        <dc:title></dc:title>
      </cc:Work>
    </rdf:RDF>
  </metadata>
  <g
     transform="translate(-948.27113,-696.40408)"
     id="layer1">
    <g
       id="g4163"
       transform="matrix(1.25,0,0,-1.25,919.67888,835.89808)">
      <g
         id="g4165"
         transform="translate(145.7704,106.9067)">
        <path
           d="m 0,0 0,-15.907 -2.792,0 0,15.907 -5.071,0 0,2.509 12.932,0 L 5.069,0 0,0 Z"
           style="fill:#231f20;fill-opacity:1;fill-rule:nonzero;stroke:none"
           id="path4167" />
      </g>
      <g
         id="g4169"
         transform="translate(155.1357,91)">
        <path
           d="m 0,0 0,18.416 11.77,0 0,-2.509 -8.976,0 0,-5.38 7.657,0 0,-2.483 -7.657,0 0,-5.535 8.976,0 L 11.77,0 0,0 Z"
           style="fill:#231f20;fill-opacity:1;fill-rule:nonzero;stroke:none"
           id="path4171" />
      </g>
      <g
         id="g4173">
        <g
           id="g4175"
           clip-path="url(#clipPath4177)">
          <g
             id="g4181"
             transform="translate(177.2787,90.8449)">
            <path
               d="m 0,0 c -1.914,0 -3.569,0.698 -4.837,1.965 -1.81,1.811 -1.784,3.855 -1.784,7.398 0,3.543 -0.026,5.587 1.784,7.397 1.268,1.268 2.923,1.966 4.837,1.966 3.388,0 5.924,-1.992 6.57,-5.664 l -2.846,0 C 3.285,14.924 2.043,16.217 0,16.217 c -1.087,0 -2.069,-0.414 -2.716,-1.112 -0.905,-0.983 -1.112,-2.043 -1.112,-5.742 0,-3.698 0.207,-4.759 1.112,-5.742 C -2.069,2.922 -1.087,2.509 0,2.509 c 2.043,0 3.311,1.293 3.75,3.156 l 2.82,0 C 5.95,1.991 3.337,0 0,0"
               style="fill:#231f20;fill-opacity:1;fill-rule:nonzero;stroke:none"
               id="path4183" />
          </g>
          <g
             id="g4185"
             transform="translate(198.4398,91)">
            <path
               d="m 0,0 0,8.044 -7.476,0 0,-8.044 -2.794,0 0,18.416 2.794,0 0,-7.863 7.476,0 0,7.863 2.792,0 L 2.792,0 0,0 Z"
               style="fill:#231f20;fill-opacity:1;fill-rule:nonzero;stroke:none"
               id="path4187" />
          </g>
          <g
             id="g4189"
             transform="translate(217.9423,91)">
            <path
               d="m 0,0 -8.509,12.959 0,-12.959 -2.794,0 0,18.416 2.561,0 8.509,-12.932 0,12.932 2.794,0 L 2.561,0 0,0 Z"
               style="fill:#231f20;fill-opacity:1;fill-rule:nonzero;stroke:none"
               id="path4191" />
          </g>
          <path
             d="m 226.429,109.416 2.794,0 0,-18.416 -2.794,0 0,18.416 z"
             style="fill:#231f20;fill-opacity:1;fill-rule:nonzero;stroke:none"
             id="path4193" />
          <g
             id="g4195"
             transform="translate(239.5168,90.8449)">
            <path
               d="m 0,0 c -2.766,0 -4.758,0.647 -6.518,2.431 l 1.864,1.837 c 1.343,-1.346 2.818,-1.759 4.706,-1.759 2.406,0 3.803,1.034 3.803,2.819 C 3.855,6.13 3.622,6.802 3.13,7.242 2.665,7.682 2.2,7.863 1.113,8.018 l -2.172,0.31 c -1.501,0.207 -2.691,0.725 -3.492,1.475 -0.906,0.853 -1.345,2.017 -1.345,3.517 0,3.208 2.327,5.406 6.156,5.406 2.431,0 4.138,-0.62 5.715,-2.095 L 4.191,14.872 c -1.139,1.086 -2.458,1.422 -4.009,1.422 -2.173,0 -3.364,-1.241 -3.364,-2.87 0,-0.673 0.209,-1.267 0.7,-1.707 0.465,-0.415 1.216,-0.725 2.069,-0.854 l 2.094,-0.31 C 3.388,10.294 4.346,9.88 5.123,9.182 6.13,8.303 6.621,6.983 6.621,5.405 6.621,2.017 3.855,0 0,0"
               style="fill:#231f20;fill-opacity:1;fill-rule:nonzero;stroke:none"
               id="path4197" />
          </g>
          <g
             id="g4199"
             transform="translate(256.4353,90.8449)">
            <path
               d="m 0,0 c -1.914,0 -3.569,0.698 -4.837,1.965 -1.81,1.811 -1.784,3.855 -1.784,7.398 0,3.543 -0.026,5.587 1.784,7.397 1.268,1.268 2.923,1.966 4.837,1.966 3.388,0 5.924,-1.992 6.57,-5.664 l -2.846,0 C 3.285,14.924 2.043,16.217 0,16.217 c -1.087,0 -2.069,-0.414 -2.716,-1.112 -0.905,-0.983 -1.111,-2.043 -1.111,-5.742 0,-3.698 0.206,-4.759 1.111,-5.742 C -2.069,2.922 -1.087,2.509 0,2.509 c 2.043,0 3.311,1.293 3.75,3.156 l 2.82,0 C 5.95,1.991 3.337,0 0,0"
               style="fill:#231f20;fill-opacity:1;fill-rule:nonzero;stroke:none"
               id="path4201" />
          </g>
          <g
             id="g4203"
             transform="translate(277.5948,91)">
            <path
               d="m 0,0 0,8.044 -7.476,0 0,-8.044 -2.794,0 0,18.416 2.794,0 0,-7.863 7.476,0 0,7.863 2.792,0 L 2.792,0 0,0 Z"
               style="fill:#231f20;fill-opacity:1;fill-rule:nonzero;stroke:none"
               id="path4205" />
          </g>
          <g
             id="g4207"
             transform="translate(285.7941,91)">
            <path
               d="m 0,0 0,18.416 11.77,0 0,-2.509 -8.976,0 0,-5.38 7.657,0 0,-2.483 -7.657,0 0,-5.535 8.976,0 L 11.77,0 0,0 Z"
               style="fill:#231f20;fill-opacity:1;fill-rule:nonzero;stroke:none"
               id="path4209" />
          </g>
          <g
             id="g4211"
             transform="translate(143.3641,70.8111)">
            <path
               d="m 0,0 0,-5.613 7.657,0 0,-2.509 -7.657,0 0,-7.785 -2.794,0 0,18.416 11.77,0 L 8.976,0 0,0 Z"
               style="fill:#231f20;fill-opacity:1;fill-rule:nonzero;stroke:none"
               id="path4213" />
          </g>
          <g
             id="g4215"
             transform="translate(159.8934,69.1557)">
            <path
               d="m 0,0 -2.871,-8.173 5.665,0 L 0,0 Z m 4.837,-14.251 -1.268,3.698 -7.267,0 -1.268,-3.698 -2.975,0 6.751,18.415 2.251,0 6.751,-18.415 -2.975,0 z"
               style="fill:#231f20;fill-opacity:1;fill-rule:nonzero;stroke:none"
               id="path4217" />
          </g>
          <g
             id="g4219"
             transform="translate(176.0093,54.7493)">
            <path
               d="m 0,0 c -1.914,0 -3.569,0.698 -4.837,1.965 -1.81,1.811 -1.784,3.855 -1.784,7.398 0,3.543 -0.026,5.587 1.784,7.397 1.268,1.268 2.923,1.966 4.837,1.966 3.388,0 5.924,-1.992 6.57,-5.664 l -2.846,0 C 3.285,14.924 2.043,16.217 0,16.217 c -1.087,0 -2.069,-0.414 -2.716,-1.112 -0.905,-0.983 -1.111,-2.043 -1.111,-5.742 0,-3.698 0.206,-4.759 1.111,-5.742 C -2.069,2.922 -1.087,2.509 0,2.509 c 2.043,0 3.311,1.293 3.75,3.156 l 2.82,0 C 5.95,1.991 3.337,0 0,0"
               style="fill:#231f20;fill-opacity:1;fill-rule:nonzero;stroke:none"
               id="path4221" />
          </g>
          <g
             id="g4223"
             transform="translate(196.5745,54.9043)">
            <path
               d="m 0,0 0,8.044 -7.476,0 0,-8.044 -2.794,0 0,18.416 2.794,0 0,-7.863 7.476,0 0,7.863 2.792,0 L 2.792,0 0,0 Z"
               style="fill:#231f20;fill-opacity:1;fill-rule:nonzero;stroke:none"
               id="path4225" />
          </g>
          <g
             id="g4227"
             transform="translate(209.0679,54.7493)">
            <path
               d="m 0,0 c -2.766,0 -4.758,0.647 -6.518,2.431 l 1.864,1.837 c 1.343,-1.346 2.818,-1.759 4.706,-1.759 2.406,0 3.803,1.034 3.803,2.819 C 3.855,6.13 3.622,6.802 3.13,7.242 2.665,7.682 2.2,7.863 1.113,8.018 l -2.172,0.31 c -1.501,0.207 -2.691,0.725 -3.492,1.475 -0.906,0.853 -1.345,2.017 -1.345,3.517 0,3.208 2.327,5.406 6.156,5.406 2.431,0 4.138,-0.62 5.715,-2.095 L 4.191,14.872 c -1.139,1.086 -2.458,1.423 -4.009,1.423 -2.173,0 -3.364,-1.242 -3.364,-2.871 0,-0.673 0.209,-1.268 0.7,-1.707 0.465,-0.415 1.216,-0.725 2.069,-0.854 l 2.094,-0.31 C 3.388,10.294 4.346,9.88 5.123,9.182 6.13,8.303 6.621,6.983 6.621,5.405 6.621,2.017 3.855,0 0,0"
               style="fill:#231f20;fill-opacity:1;fill-rule:nonzero;stroke:none"
               id="path4229" />
          </g>
          <g
             id="g4231"
             transform="translate(225.3906,54.7493)">
            <path
               d="m 0,0 c -1.914,0 -3.569,0.698 -4.837,1.965 -1.81,1.811 -1.784,3.855 -1.784,7.398 0,3.543 -0.026,5.587 1.784,7.397 1.268,1.268 2.923,1.966 4.837,1.966 3.388,0 5.924,-1.992 6.57,-5.664 l -2.846,0 C 3.285,14.924 2.043,16.217 0,16.217 c -1.087,0 -2.069,-0.414 -2.716,-1.112 -0.905,-0.983 -1.111,-2.043 -1.111,-5.742 0,-3.698 0.206,-4.759 1.111,-5.742 C -2.069,2.922 -1.087,2.509 0,2.509 c 2.043,0 3.311,1.293 3.75,3.156 l 2.82,0 C 5.95,1.991 3.337,0 0,0"
               style="fill:#231f20;fill-opacity:1;fill-rule:nonzero;stroke:none"
               id="path4233" />
          </g>
          <g
             id="g4235"
             transform="translate(245.9557,54.9043)">
            <path
               d="m 0,0 0,8.044 -7.476,0 0,-8.044 -2.794,0 0,18.416 2.794,0 0,-7.863 7.476,0 0,7.863 2.792,0 L 2.792,0 0,0 Z"
               style="fill:#231f20;fill-opacity:1;fill-rule:nonzero;stroke:none"
               id="path4237" />
          </g>
          <g
             id="g4239"
             transform="translate(259.872,54.7493)">
            <path
               d="m 0,0 c -3.75,0 -6.596,2.561 -6.596,6.363 l 0,12.208 2.794,0 0,-12.079 c 0,-2.457 1.501,-3.983 3.802,-3.983 2.303,0 3.829,1.526 3.829,3.983 l 0,12.079 2.792,0 0,-12.208 C 6.621,2.561 3.752,0 0,0"
               style="fill:#231f20;fill-opacity:1;fill-rule:nonzero;stroke:none"
               id="path4241" />
          </g>
          <g
             id="g4243"
             transform="translate(271.0219,54.9043)">
            <path
               d="m 0,0 0,18.416 2.794,0 0,-15.907 8.873,0 L 11.667,0 0,0 Z"
               style="fill:#231f20;fill-opacity:1;fill-rule:nonzero;stroke:none"
               id="path4245" />
          </g>
          <g
             id="g4247"
             transform="translate(285.87,54.9043)">
            <path
               d="m 0,0 0,18.416 11.77,0 0,-2.509 -8.976,0 0,-5.38 7.657,0 0,-2.483 -7.657,0 0,-5.535 8.976,0 L 11.77,0 0,0 Z"
               style="fill:#231f20;fill-opacity:1;fill-rule:nonzero;stroke:none"
               id="path4249" />
          </g>
          <g
             id="g4251"
             transform="translate(145.0323,29.2907)">
            <path
               d="m 0,0 -3.868,0 0,-5.379 3.868,0 c 1.786,0 2.965,0.995 2.965,2.69 C 2.965,-0.995 1.786,0 0,0 m -0.147,5.969 -3.721,0 0,-5.085 3.721,0 c 1.584,0 2.91,0.737 2.91,2.542 0,1.806 -1.326,2.543 -2.91,2.543 m 0.257,-12.232 -4.973,0 0,13.115 4.826,0 c 2.174,0 3.795,-1.271 3.795,-3.426 0,-1.381 -0.774,-2.523 -2.045,-2.947 1.418,-0.498 2.247,-1.639 2.247,-3.168 0,-2.34 -1.547,-3.574 -3.85,-3.574"
               style="fill:#231f20;fill-opacity:1;fill-rule:nonzero;stroke:none"
               id="path4253" />
          </g>
          <g
             id="g4255"
             transform="translate(152.5258,36.1431)">
            <path
               d="m 0,0 7.957,0 0,-0.883 -6.962,0 0,-5.177 5.93,0 0,-0.884 -5.93,0 0,-5.287 6.962,0 0,-0.884 -7.957,0 L 0,0 Z"
               style="fill:#231f20;fill-opacity:1;fill-rule:nonzero;stroke:none"
               id="path4257" />
          </g>
          <g
             id="g4259"
             transform="translate(168.4011,35.2597)">
            <path
               d="m 0,0 -3.868,0 0,-5.305 3.868,0 c 1.694,0 2.892,0.828 2.892,2.652 C 2.892,-0.829 1.694,0 0,0 m -0.258,-6.19 -3.61,0 0,-6.042 -0.995,0 0,13.115 4.992,0 c 2.137,0 3.758,-1.233 3.758,-3.518 0,-1.971 -1.179,-3.223 -3.021,-3.537 l 3.168,-6.06 -1.161,0 -3.131,6.042 z"
               style="fill:#231f20;fill-opacity:1;fill-rule:nonzero;stroke:none"
               id="path4261" />
          </g>
          <g
             id="g4263"
             transform="translate(176.6311,34.4304)">
            <path
               d="m 0,0 0,-11.403 -0.995,0 0,13.116 0.995,0 7.571,-11.366 0,11.366 0.995,0 0,-13.116 -0.995,0 L 0,0 Z"
               style="fill:#231f20;fill-opacity:1;fill-rule:nonzero;stroke:none"
               id="path4265" />
          </g>
          <g
             id="g4267"
             transform="translate(104.0968,96.6832)">
            <path
               d="M 0,0 5.939,0 0,-5.949 0,0 Z m -6.63,-33.392 5.923,0 -5.917,-6.017 -0.006,6.017 z m -26.534,-33.431 5.922,-0.001 -5.922,-5.891 0,5.892 z m -12.942,-6.184 6.172,6.184 6.353,0 0,-6.184 -12.525,0 z m 5.879,32.882 0,-26.382 -6.241,-6.253 0,32.635 6.241,0 z m -33.175,46.768 0,-6.348 -6.207,-6.238 0,12.586 6.207,0 z m 0,0.418 -5.943,0 5.943,5.942 0,-5.942 z m 26.716,0 -26.301,0 10e-4,6.236 32.49,-0.009 -6.19,-6.227 z m 20.11,-0.418 26.159,0 0,-6.226 -26.159,0 0,6.226 z m 19.616,-32.977 -19.616,0 0,6.257 25.876,0 -6.26,-6.257 z m -19.616,-0.418 19.524,0 0.006,-6.224 -19.53,10e-4 0,6.223 z m -0.415,-12.955 -5.887,0 5.887,5.931 0,-5.931 z m -12.82,6.332 6.23,-0.008 0,-6.324 -6.23,0 0,6.332 z m -0.416,-0.312 0,-6.02 -5.95,0 5.95,6.02 z m -6.241,27.134 6.241,6.255 0,-32.795 -6.241,-6.279 0,32.819 z M -73.095,0 l 26.211,0 0,-6.339 -32.473,0 6.262,6.339 z m 26.21,6.643 10e-4,-6.225 -26.103,0 0,6.225 26.102,0 z m 6.658,0 0,-6.225 -6.241,0 -10e-4,6.225 6.242,0 z m 0,0.418 -5.872,0 5.872,5.905 0,-5.905 z m 7.377,0 5.858,5.904 0,-5.904 -5.858,0 z m 5.858,-6.767 -6.172,-6.181 0,12.53 6.172,0 0,-6.349 z m 0.001,-0.595 0,-6.008 -5.972,0 5.972,6.008 z m 0,-19.481 -6.173,-6.195 0,19.217 6.173,0 0,-13.022 z m -5.935,-6.552 5.935,5.96 0,-5.96 -5.935,0 z m -6.885,32.977 6.23,0 0,-39.619 -6.23,0 0,39.619 z M -46.468,0 l 5.948,0 -5.948,-5.961 0,5.961 z m 19.256,-33.391 -5.952,-5.981 0,5.988 5.952,-0.007 z m 0.221,0.417 -6.173,-0.002 0,6.224 6.173,0 0,-6.222 z m 32.924,46.249 -6.207,-6.214 -26.302,0 0,6.223 32.509,-0.009 z m -33.197,0.009 -6.175,-6.223 -6.372,0 0,6.227 12.547,-0.004 z m -12.547,-53.409 6.23,0 0,-26.281 -6.23,0 0,26.281 z m 6.647,-26.281 0,26.281 6.173,0 0,-26.281 -6.173,0 z m 26.534,33.43 -0.005,6.357 6.23,6.245 -0.011,-12.602 -6.214,0 z M -26.576,0 l 26.159,0 0,-6.309 -26.159,0 0,6.309 z M 0,0.418 l 0,6.327 6.23,6.234 0,-12.561 -6.23,0 z m -26.576,-40.125 0,6.314 19.53,10e-4 0.006,-6.315 -19.536,0 z m 33.015,54.596 -79.634,0.023 c -0.372,0 -0.73,-0.148 -0.994,-0.412 l -6.622,-6.623 c -0.263,-0.263 -0.412,-0.621 -0.412,-0.993 l 0,-13.35 c 0,-0.776 0.63,-1.455 1.406,-1.455 l 31.77,0 0,-65.295 c 0,-0.776 0.629,-1.405 1.405,-1.405 l 13.27,0 c 0.372,0 0.728,0.147 0.991,0.409 l 6.635,6.6 c 0.265,0.264 0.415,0.622 0.415,0.996 l 0,25.295 18.5,0 c 0.375,0 0.735,0.15 0.998,0.417 l 6.623,6.698 c 0.26,0.262 0.406,0.617 0.407,0.986 l 0.011,13.242 c 0.003,0.036 0.005,0.073 0.005,0.11 0,0.776 -0.626,1.405 -1.402,1.405 l -0.008,0 -25.147,0 0,10.539 25.135,0 c 0.375,0 0.736,0.185 1,0.453 l 6.647,6.692 c 0.26,0.263 0.406,0.618 0.406,0.988 l 0,13.275 c 0,0.776 -0.629,1.405 -1.405,1.405"
               style="fill:#231f20;fill-opacity:1;fill-rule:nonzero;stroke:none"
               id="path4269" />
          </g>
        </g>
      </g>
    </g>
  </g>
</svg>
